<?xml version="1.0" standalone="no"?>
<!DOCTYPE svg PUBLIC "-//W3C//DTD SVG 20010904//EN"
 "http://www.w3.org/TR/2001/REC-SVG-20010904/DTD/svg10.dtd">
<svg version="1.0" xmlns="http://www.w3.org/2000/svg"
 width="512.000000pt" height="512.000000pt" viewBox="0 0 512.000000 512.000000"
 preserveAspectRatio="xMidYMid meet">
<metadata>
Created by potrace 1.12, written by Peter Selinger 2001-2015
</metadata>
<g transform="translate(0.000000,512.000000) scale(0.100000,-0.100000)"
fill="#000000" stroke="none">
<path d="M1380 4163 c-41 -17 -120 -131 -150 -219 -53 -152 -60 -208 -60 -500
0 -262 7 -363 32 -464 19 -81 68 -213 97 -265 79 -139 131 -326 161 -583 23
-195 24 -300 14 -824 l-7 -348 120 0 c131 0 284 28 518 95 254 73 684 243 985
389 260 126 438 244 568 376 107 108 132 163 197 429 65 262 95 414 95 472 l0
57 -114 118 c-113 119 -113 119 -120 179 -4 34 -20 83 -36 115 -109 209 -141
267 -159 286 -18 19 -20 30 -15 80 5 55 4 61 -26 97 -41 49 -110 88 -190 108
l-65 17 0 44 c0 28 -8 54 -22 74 -32 45 -119 108 -190 138 -63 26 -183 49
-208 40 -11 -4 -59 -125 -127 -319 -6 -16 -17 -46 -26 -65 -8 -19 -15 -41 -15
-47 0 -11 -23 3 -82 49 -341 269 -578 392 -860 447 -106 20 -290 35 -315 24z
m318 -133 c143 -34 311 -101 449 -180 57 -32 222 -141 265 -174 14 -12 41 -32
59 -46 31 -23 152 -122 328 -268 200 -166 210 -176 211 -203 1 -81 73 -156
200 -208 127 -52 335 -69 421 -35 l43 18 94 -99 c83 -88 93 -103 89 -130 -6
-44 -68 -319 -74 -328 -3 -5 -15 4 -27 19 -49 64 -197 205 -288 273 -395 297
-1205 645 -1678 721 -41 6 -95 16 -120 20 -25 5 -87 10 -137 11 l-91 2 -6 36
c-11 69 -19 407 -11 505 l7 99 92 -7 c50 -3 128 -15 174 -26z m-353 -137 c-6
-76 4 -271 21 -463 l6 -56 -63 -74 -62 -74 6 194 c6 199 17 302 42 387 40 143
50 173 52 173 2 0 1 -39 -2 -87z m1590 42 c55 -9 144 -60 178 -101 23 -27 27
-40 22 -64 -8 -36 -15 -37 -92 -6 -33 14 -97 31 -142 39 -45 8 -87 19 -93 25
-7 7 -5 24 7 56 19 48 39 68 65 61 8 -2 33 -6 55 -10z m65 -440 c140 -10 348
-47 408 -72 39 -16 39 8 7 -228 -24 -179 -27 -195 -36 -195 -6 0 -44 13 -87
30 -103 39 -170 98 -183 160 -7 31 -21 56 -47 80 l-37 35 47 3 c43 3 48 6 57
35 23 75 21 80 -41 95 -71 17 -88 12 -88 -27 0 -59 -18 -75 -51 -45 -12 11
-16 25 -12 48 5 32 5 32 -51 45 -31 7 -58 17 -61 22 -13 20 8 29 53 25 26 -3
81 -8 122 -11z m569 -300 c28 -53 51 -105 51 -116 0 -32 -38 -97 -60 -104 -12
-4 -39 -4 -60 0 -34 6 -39 10 -35 28 2 12 12 74 20 137 16 114 23 150 30 150
2 0 26 -43 54 -95z"/>
<path d="M3227 3403 c-4 -3 -7 -32 -7 -63 l0 -57 38 -7 c72 -12 80 -9 91 32
20 71 16 79 -39 91 -59 13 -74 14 -83 4z"/>
<path d="M3186 3193 c-14 -86 -12 -90 50 -98 31 -4 60 -3 63 2 14 16 33 95 24
103 -9 8 -94 30 -116 30 -9 0 -17 -15 -21 -37z"/>
</g>
</svg>
